<svg xmlns="http://www.w3.org/2000/svg" xmlns:xlink="http://www.w3.org/1999/xlink" width="400" zoomAndPan="magnify" viewBox="0 0 300 89.999999" height="120" preserveAspectRatio="xMidYMid meet" version="1.0"><defs><g/><clipPath id="7194f6c029"><path d="M 9 8.441406 L 82.121094 8.441406 L 82.121094 81.558594 L 9 81.558594 Z M 9 8.441406 " clip-rule="nonzero"/></clipPath><clipPath id="3933524f50"><path d="M 53.753906 23.074219 L 62.894531 23.074219 L 62.894531 32.214844 L 53.753906 32.214844 Z M 53.753906 23.074219 " clip-rule="nonzero"/></clipPath><clipPath id="76087633ba"><path d="M 58.324219 23.074219 C 55.800781 23.074219 53.753906 25.121094 53.753906 27.644531 C 53.753906 30.167969 55.800781 32.214844 58.324219 32.214844 C 60.847656 32.214844 62.894531 30.167969 62.894531 27.644531 C 62.894531 25.121094 60.847656 23.074219 58.324219 23.074219 Z M 58.324219 23.074219 " clip-rule="nonzero"/></clipPath><clipPath id="220778db0b"><path d="M 26.015625 40.429688 L 35.15625 40.429688 L 35.15625 49.570312 L 26.015625 49.570312 Z M 26.015625 40.429688 " clip-rule="nonzero"/></clipPath><clipPath id="3ab18676e0"><path d="M 30.585938 40.429688 C 28.0625 40.429688 26.015625 42.476562 26.015625 45 C 26.015625 47.523438 28.0625 49.570312 30.585938 49.570312 C 33.109375 49.570312 35.15625 47.523438 35.15625 45 C 35.15625 42.476562 33.109375 40.429688 30.585938 40.429688 Z M 30.585938 40.429688 " clip-rule="nonzero"/></clipPath><clipPath id="61aae26f4b"><path d="M 54.363281 57.210938 L 63.503906 57.210938 L 63.503906 66.351562 L 54.363281 66.351562 Z M 54.363281 57.210938 " clip-rule="nonzero"/></clipPath><clipPath id="082906ca7f"><path d="M 58.933594 57.210938 C 56.410156 57.210938 54.363281 59.257812 54.363281 61.78125 C 54.363281 64.304688 56.410156 66.351562 58.933594 66.351562 C 61.457031 66.351562 63.503906 64.304688 63.503906 61.78125 C 63.503906 59.257812 61.457031 57.210938 58.933594 57.210938 Z M 58.933594 57.210938 " clip-rule="nonzero"/></clipPath></defs><g clip-path="url(#7194f6c029)"><path fill="#493eda" d="M 74.699219 67.082031 C 79.359375 60.941406 82.132812 53.296875 82.132812 45.011719 C 82.132812 36.722656 79.359375 29.078125 74.699219 22.945312 C 74.625 22.808594 74.53125 22.6875 74.421875 22.582031 C 67.726562 13.988281 57.28125 8.449219 45.566406 8.449219 C 33.851562 8.449219 23.410156 13.988281 16.714844 22.582031 C 16.605469 22.6875 16.511719 22.808594 16.4375 22.945312 C 11.777344 29.082031 9.007812 36.726562 9.007812 45.011719 C 9.007812 53.296875 11.777344 60.941406 16.4375 67.078125 C 16.511719 67.214844 16.605469 67.335938 16.714844 67.4375 C 23.410156 76.035156 33.855469 81.574219 45.570312 81.574219 C 57.285156 81.574219 67.734375 76.03125 74.433594 67.429688 C 74.535156 67.328125 74.625 67.214844 74.699219 67.082031 Z M 12.011719 46.492188 L 29.382812 46.492188 C 29.460938 51.546875 29.929688 56.390625 30.75 60.773438 C 25.875 61.617188 21.589844 62.886719 18.207031 64.476562 C 14.554688 59.359375 12.304688 53.175781 12.011719 46.496094 Z M 18.207031 25.542969 C 21.589844 27.136719 25.875 28.402344 30.75 29.25 C 29.929688 33.628906 29.460938 38.472656 29.382812 43.527344 L 12.011719 43.527344 C 12.304688 36.84375 14.554688 30.664062 18.207031 25.546875 Z M 79.128906 43.527344 L 61.753906 43.527344 C 61.675781 38.472656 61.207031 33.628906 60.386719 29.246094 C 65.261719 28.402344 69.546875 27.132812 72.933594 25.542969 C 76.585938 30.660156 78.835938 36.84375 79.128906 43.523438 Z M 44.082031 43.527344 L 32.351562 43.527344 C 32.429688 38.613281 32.886719 33.917969 33.683594 29.695312 C 37.015625 30.140625 40.503906 30.394531 44.082031 30.449219 Z M 44.082031 46.492188 L 44.082031 59.570312 C 40.503906 59.625 37.019531 59.878906 33.683594 60.324219 C 32.886719 56.101562 32.429688 51.40625 32.351562 46.492188 L 44.085938 46.492188 Z M 47.050781 46.492188 L 58.785156 46.492188 C 58.707031 51.40625 58.25 56.101562 57.453125 60.324219 C 54.117188 59.878906 50.632812 59.625 47.054688 59.570312 L 47.054688 46.492188 Z M 47.050781 43.527344 L 47.050781 30.449219 C 50.628906 30.394531 54.117188 30.140625 57.449219 29.695312 C 58.25 33.917969 58.707031 38.613281 58.78125 43.527344 Z M 47.050781 27.480469 L 47.050781 11.59375 C 51.085938 12.554688 53.691406 17.332031 55.210938 21.410156 C 55.824219 23.058594 56.363281 24.859375 56.828125 26.785156 C 53.691406 27.195312 50.414062 27.425781 47.050781 27.480469 Z M 44.082031 11.59375 L 44.082031 27.480469 C 40.71875 27.425781 37.445312 27.195312 34.308594 26.785156 C 34.769531 24.859375 35.3125 23.058594 35.925781 21.410156 C 37.445312 17.332031 40.050781 12.554688 44.082031 11.59375 Z M 44.082031 62.535156 L 44.082031 78.425781 C 40.050781 77.464844 37.445312 72.6875 35.925781 68.605469 C 35.3125 66.960938 34.769531 65.15625 34.308594 63.234375 C 37.445312 62.824219 40.722656 62.589844 44.082031 62.535156 Z M 47.050781 78.425781 L 47.050781 62.535156 C 50.414062 62.589844 53.691406 62.820312 56.828125 63.234375 C 56.363281 65.160156 55.824219 66.960938 55.210938 68.605469 C 53.6875 72.6875 51.085938 77.464844 47.050781 78.425781 Z M 61.753906 46.492188 L 79.128906 46.492188 C 78.835938 53.175781 76.585938 59.355469 72.933594 64.472656 C 69.546875 62.882812 65.261719 61.613281 60.386719 60.769531 C 61.207031 56.386719 61.675781 51.542969 61.753906 46.488281 Z M 71.046875 23.140625 C 67.980469 24.5 64.140625 25.589844 59.773438 26.339844 C 59.269531 24.199219 58.675781 22.199219 57.996094 20.371094 C 56.738281 17.003906 55.222656 14.320312 53.484375 12.359375 C 60.425781 14.042969 66.535156 17.886719 71.050781 23.140625 Z M 37.652344 12.359375 C 35.914062 14.320312 34.398438 17.003906 33.140625 20.371094 C 32.460938 22.199219 31.867188 24.199219 31.363281 26.339844 C 26.996094 25.589844 23.160156 24.5 20.089844 23.140625 C 24.601562 17.886719 30.710938 14.042969 37.652344 12.359375 Z M 20.085938 66.875 C 23.15625 65.515625 26.996094 64.425781 31.363281 63.675781 C 31.867188 65.816406 32.460938 67.816406 33.140625 69.644531 C 34.398438 73.011719 35.914062 75.695312 37.648438 77.65625 C 30.707031 75.972656 24.601562 72.128906 20.085938 66.875 Z M 53.484375 77.65625 C 55.222656 75.695312 56.738281 73.011719 57.992188 69.644531 C 58.675781 67.816406 59.269531 65.816406 59.773438 63.675781 C 64.136719 64.425781 67.976562 65.515625 71.046875 66.875 C 66.53125 72.128906 60.425781 75.972656 53.480469 77.65625 Z M 53.484375 77.65625 " fill-opacity="1" fill-rule="nonzero"/></g><g clip-path="url(#3933524f50)"><g clip-path="url(#76087633ba)"><path fill="#493eda" d="M 53.753906 23.074219 L 62.894531 23.074219 L 62.894531 32.214844 L 53.753906 32.214844 Z M 53.753906 23.074219 " fill-opacity="1" fill-rule="nonzero"/></g></g><g clip-path="url(#220778db0b)"><g clip-path="url(#3ab18676e0)"><path fill="#493eda" d="M 26.015625 40.429688 L 35.15625 40.429688 L 35.15625 49.570312 L 26.015625 49.570312 Z M 26.015625 40.429688 " fill-opacity="1" fill-rule="nonzero"/></g></g><g clip-path="url(#61aae26f4b)"><g clip-path="url(#082906ca7f)"><path fill="#493eda" d="M 54.363281 57.210938 L 63.503906 57.210938 L 63.503906 66.351562 L 54.363281 66.351562 Z M 54.363281 57.210938 " fill-opacity="1" fill-rule="nonzero"/></g></g><g fill="#262626" fill-opacity="1"><g transform="translate(90.531998, 61.575364)"><g><path d="M 20.71875 0 L 13.515625 -13.078125 L 11.5 -13.078125 L 11.5 0 L 3.0625 0 L 3.0625 -34.640625 L 17.21875 -34.640625 C 19.945312 -34.640625 22.273438 -34.160156 24.203125 -33.203125 C 26.128906 -32.253906 27.566406 -30.945312 28.515625 -29.28125 C 29.472656 -27.625 29.953125 -25.773438 29.953125 -23.734375 C 29.953125 -21.429688 29.300781 -19.375 28 -17.5625 C 26.695312 -15.757812 24.78125 -14.476562 22.25 -13.71875 L 30.25 0 Z M 11.5 -19.046875 L 16.734375 -19.046875 C 18.273438 -19.046875 19.429688 -19.421875 20.203125 -20.171875 C 20.972656 -20.929688 21.359375 -22.003906 21.359375 -23.390625 C 21.359375 -24.703125 20.972656 -25.734375 20.203125 -26.484375 C 19.429688 -27.242188 18.273438 -27.625 16.734375 -27.625 L 11.5 -27.625 Z M 11.5 -19.046875 "/></g></g></g><g fill="#262626" fill-opacity="1"><g transform="translate(122.706659, 61.575364)"><g><path d="M 42.28125 -34.640625 L 42.28125 0 L 33.84375 0 L 33.84375 -20.78125 L 26.109375 0 L 19.296875 0 L 11.5 -20.828125 L 11.5 0 L 3.0625 0 L 3.0625 -34.640625 L 13.03125 -34.640625 L 22.75 -10.65625 L 32.375 -34.640625 Z M 42.28125 -34.640625 "/></g></g></g><g fill="#262626" fill-opacity="1"><g transform="translate(168.007786, 61.575364)"><g/></g></g><g fill="#262626" fill-opacity="1"><g transform="translate(178.469482, 61.575364)"><g><path d="M 16.03125 -34.640625 C 19.6875 -34.640625 22.878906 -33.914062 25.609375 -32.46875 C 28.335938 -31.019531 30.445312 -28.988281 31.9375 -26.375 C 33.4375 -23.757812 34.1875 -20.738281 34.1875 -17.3125 C 34.1875 -13.925781 33.4375 -10.914062 31.9375 -8.28125 C 30.445312 -5.65625 28.328125 -3.617188 25.578125 -2.171875 C 22.835938 -0.722656 19.65625 0 16.03125 0 L 3.0625 0 L 3.0625 -34.640625 Z M 15.5 -7.296875 C 18.6875 -7.296875 21.164062 -8.164062 22.9375 -9.90625 C 24.71875 -11.65625 25.609375 -14.125 25.609375 -17.3125 C 25.609375 -20.507812 24.71875 -22.992188 22.9375 -24.765625 C 21.164062 -26.546875 18.6875 -27.4375 15.5 -27.4375 L 11.5 -27.4375 L 11.5 -7.296875 Z M 15.5 -7.296875 "/></g></g></g><g fill="#262626" fill-opacity="1"><g transform="translate(214.345209, 61.575364)"><g><path d="M 11.5 -27.875 L 11.5 -20.875 L 22.796875 -20.875 L 22.796875 -14.359375 L 11.5 -14.359375 L 11.5 -6.765625 L 24.28125 -6.765625 L 24.28125 0 L 3.0625 0 L 3.0625 -34.640625 L 24.28125 -34.640625 L 24.28125 -27.875 Z M 11.5 -27.875 "/></g></g></g><g fill="#262626" fill-opacity="1"><g transform="translate(241.042282, 61.575364)"><g><path d="M 35.578125 -34.640625 L 23.296875 0 L 12.734375 0 L 0.4375 -34.640625 L 9.421875 -34.640625 L 18.015625 -8.484375 L 26.640625 -34.640625 Z M 35.578125 -34.640625 "/></g></g></g><g fill="#493eda" fill-opacity="1"><g transform="translate(277.07105, 61.575364)"><g><path d="M 7 0.390625 C 5.519531 0.390625 4.3125 -0.0390625 3.375 -0.90625 C 2.4375 -1.78125 1.96875 -2.859375 1.96875 -4.140625 C 1.96875 -5.460938 2.4375 -6.566406 3.375 -7.453125 C 4.3125 -8.335938 5.519531 -8.78125 7 -8.78125 C 8.445312 -8.78125 9.640625 -8.335938 10.578125 -7.453125 C 11.515625 -6.566406 11.984375 -5.460938 11.984375 -4.140625 C 11.984375 -2.859375 11.515625 -1.78125 10.578125 -0.90625 C 9.640625 -0.0390625 8.445312 0.390625 7 0.390625 Z M 7 0.390625 "/></g></g></g></svg>